<svg xmlns="http://www.w3.org/2000/svg" version="1.1" xmlns:xlink="http://www.w3.org/1999/xlink" width="1500" height="145" viewBox="0 0 1500 145"><svg xml:space="preserve" width="1500" height="145" data-version="2" data-id="lg_v4cujt8xQgkGAZjuUa" viewBox="0 0 630 145" x="0" y="0"><rect width="100%" height="100%" fill="transparent"></rect><path fill="#3684ff" d="m254.514 55.671-10.26 10.31q-.77-2.15-2.1-3.87-1.33-1.72-3-2.9t-3.61-1.79q-1.95-.62-4-.62-2.87 0-5.41 1.18t-4.41 3.31q-1.87 2.13-2.95 5.05t-1.08 6.46q0 2.87 1.08 5.38t2.95 4.41q1.87 1.9 4.41 2.97 2.54 1.08 5.41 1.08 2.05 0 3.94-.56 1.9-.57 3.57-1.62 1.66-1.05 2.97-2.56 1.31-1.51 2.13-3.36l10.25 10.31q-1.94 2.76-4.48 4.97-2.54 2.2-5.49 3.74t-6.2 2.33q-3.26.8-6.69.8-5.8 0-10.9-2.18-5.1-2.18-8.92-5.97-3.82-3.8-6.02-8.87-2.21-5.08-2.21-10.87 0-6.31 2.21-11.79 2.2-5.49 6.02-9.57 3.82-4.07 8.92-6.43 5.1-2.36 10.9-2.36 3.43 0 6.74.87 3.31.88 6.31 2.54 2.99 1.67 5.53 4.08t4.39 5.53"></path><rect width="51.02" height="58.04" x="-25.51" y="-29.02" fill="none" rx="0" ry="0" transform="translate(229.5 72.17)"></rect><path fill="#3684ff" d="M313.574 71.721q0 6.15-2.21 11.46-2.2 5.31-5.99 9.18-3.8 3.87-8.9 6.1-5.1 2.23-10.95 2.23-5.79 0-10.89-2.23-5.1-2.23-8.92-6.1-3.82-3.87-6.03-9.18-2.2-5.31-2.2-11.46 0-6.25 2.2-11.59 2.21-5.33 6.03-9.2 3.82-3.87 8.92-6.07 5.1-2.21 10.89-2.21 5.85 0 10.95 2.08 5.1 2.07 8.9 5.89 3.79 3.82 5.99 9.18 2.21 5.36 2.21 11.92m-14.1 0q0-3.38-1.1-6.13-1.11-2.74-3-4.71-1.9-1.98-4.44-3.03-2.53-1.05-5.41-1.05-2.87 0-5.41 1.05-2.53 1.05-4.4 3.03-1.88 1.97-2.95 4.71-1.08 2.75-1.08 6.13 0 3.18 1.08 5.9 1.07 2.71 2.95 4.71 1.87 2 4.4 3.16 2.54 1.15 5.41 1.15 2.88 0 5.41-1.08 2.54-1.07 4.44-3.02 1.89-1.95 3-4.72 1.1-2.77 1.1-6.1"></path><rect width="56.09" height="58.04" x="-28.05" y="-29.02" fill="none" rx="0" ry="0" transform="translate(286.03 72.17)"></rect><path fill="#3684ff" d="M374.374 99.661h-3.38l-5.43-7.53q-2 1.79-4.23 3.36-2.23 1.56-4.7 2.71-2.46 1.16-5.05 1.82-2.58.67-5.25.67-5.79 0-10.9-2.18-5.1-2.18-8.92-6.05-3.82-3.87-6.02-9.18-2.2-5.3-2.2-11.56 0-6.2 2.2-11.53 2.2-5.34 6.02-9.23 3.82-3.9 8.92-6.1 5.11-2.21 10.9-2.21 1.85 0 3.82.31 1.97.31 3.84 1 1.88.69 3.52 1.82 1.64 1.13 2.76 2.77v-25.64h14.1Zm-14.1-27.94q0-2.87-1.1-5.56-1.1-2.69-3-4.77-1.89-2.08-4.43-3.33-2.54-1.26-5.41-1.26t-5.41 1.03q-2.54 1.02-4.41 2.95-1.87 1.92-2.95 4.69-1.07 2.77-1.07 6.25 0 3.03 1.07 5.74 1.08 2.72 2.95 4.77 1.87 2.05 4.41 3.23 2.54 1.18 5.41 1.18t5.41-1.26q2.54-1.25 4.43-3.33 1.9-2.07 3-4.77 1.1-2.69 1.1-5.56"></path><rect width="56.08" height="77.78" x="-28.04" y="-38.89" fill="none" rx="0" ry="0" transform="translate(346.83 62.3)"></rect><path fill="#3684ff" d="M406.884 86.231q.82.26 1.64.33.82.08 1.64.08 2.05 0 3.95-.56 1.89-.57 3.56-1.62 1.67-1.05 2.97-2.56 1.31-1.51 2.13-3.36l10.26 10.31q-1.95 2.76-4.49 4.97-2.54 2.2-5.49 3.74-2.94 1.54-6.2 2.33-3.25.8-6.69.8-5.79 0-10.89-2.15-5.11-2.16-8.93-6-3.82-3.85-6.02-9.15-2.2-5.31-2.2-11.67 0-6.51 2.2-11.89 2.2-5.39 6.02-9.18 3.82-3.79 8.93-5.9 5.1-2.1 10.89-2.1 3.44 0 6.72.82t6.23 2.36q2.94 1.54 5.51 3.77 2.56 2.23 4.51 5Zm7.18-28.86q-.98-.36-1.93-.47-.94-.1-1.97-.1-2.87 0-5.41 1.05t-4.41 3q-1.87 1.95-2.95 4.69-1.07 2.75-1.07 6.18 0 .77.07 1.74.08.98.26 1.98t.44 1.92q.25.92.66 1.64Z"></path><rect width="51.01" height="58.04" x="-25.5" y="-29.02" fill="none" rx="0" ry="0" transform="translate(408.13 72.17)"></rect><path fill="#3684ff" d="M494.144 99.661h-56.91l31.38-58.8h-31.38v-14.72h56.91l-31.27 58.81h31.27Z"></path><rect width="56.91" height="73.52" x="-28.45" y="-36.76" fill="none" rx="0" ry="0" transform="translate(466.19 63.4)"></rect><path fill="#3684ff" d="M553.664 99.661h-50.39v-73.52h50.39v14.72h-35.68v14.71h24.15v14.72h-24.15v14.66h35.68Z"></path><rect width="50.39" height="73.52" x="-25.2" y="-36.76" fill="none" rx="0" ry="0" transform="translate(528.97 63.4)"></rect><path fill="#3684ff" d="M622.774 99.661h-15.73l-28.36-48.39v48.39h-14.71v-73.52h15.74l28.35 48.45v-48.45h14.71Z"></path><rect width="58.8" height="73.52" x="-29.4" y="-36.76" fill="none" rx="0" ry="0" transform="translate(593.87 63.4)"></rect><path fill="#3684ff" d="M41.044 43.735v57.238a6.346 6.346 0 0 0 6.34 6.34h57.238a6.346 6.346 0 0 0 6.34-6.34V43.735a6.346 6.346 0 0 0-6.34-6.338h-57.24a6.346 6.346 0 0 0-6.338 6.338m68.272 0v57.238a4.697 4.697 0 0 1-4.696 4.694H47.382a4.697 4.697 0 0 1-4.694-4.694V43.735a4.699 4.699 0 0 1 4.694-4.694h57.238a4.699 4.699 0 0 1 4.696 4.694"></path><path fill="#3684ff" d="M68.17 86.032h15.665a6.58 6.58 0 0 0 6.578-6.58V65.255a6.58 6.58 0 0 0-6.578-6.58H68.17a6.578 6.578 0 0 0-6.579 6.58v14.197a6.578 6.578 0 0 0 6.579 6.58"></path><circle r="3" fill="#3684ff" transform="translate(54.09 29.09)scale(1.5406)"></circle><path fill="#3684ff" d="M82.967 33.712a4.614 4.614 0 0 0 .77-9.167V7.81h26.878a5.346 5.346 0 0 0 5.283 4.589 5.361 5.361 0 0 0 0-10.72 5.346 5.346 0 0 0-5.283 4.59H82.197v18.276a4.614 4.614 0 0 0 .77 9.167M68.46 110.997a4.623 4.623 0 0 0-4.621 4.622 4.616 4.616 0 0 0 3.851 4.545v15.484h-2.966a5.346 5.346 0 0 0-5.282-4.589 5.361 5.361 0 0 0 0 10.72 5.346 5.346 0 0 0 5.282-4.59h4.507v-17.025a4.614 4.614 0 0 0-.77-9.167m45.8-59.377a4.623 4.623 0 0 0 4.623 4.621 4.616 4.616 0 0 0 4.544-3.851h2.339a5.343 5.343 0 0 0 5.281 4.59 5.36 5.36 0 1 0 0-10.72 5.343 5.343 0 0 0-5.281 4.59h-2.339a4.614 4.614 0 0 0-9.166.77M37.745 94.37a4.616 4.616 0 0 0-9.166-.77h-3.27a5.344 5.344 0 0 0-5.282-4.59 5.36 5.36 0 1 0 0 10.72 5.344 5.344 0 0 0 5.283-4.59h3.269a4.613 4.613 0 0 0 4.545 3.852 4.622 4.622 0 0 0 4.621-4.622m.738-81.972a5.346 5.346 0 0 0 5.283-4.59h9.546v16.659h1.54v-18.2H43.765a5.346 5.346 0 0 0-10.642.771 5.361 5.361 0 0 0 5.36 5.36m29.207-.077v12.225a4.614 4.614 0 0 0 .77 9.166 4.614 4.614 0 0 0 .77-9.166V12.322a5.346 5.346 0 0 0 4.59-5.283 5.361 5.361 0 0 0-10.72 0 5.346 5.346 0 0 0 4.59 5.283"></path><path fill="#3684ff" d="M102.192 15.016a5.361 5.361 0 0 0-10.72 0 5.346 5.346 0 0 0 4.59 5.283v4.248a4.614 4.614 0 0 0 .77 9.166 4.614 4.614 0 0 0 .77-9.166v-4.248a5.346 5.346 0 0 0 4.59-5.283m39.383 27.663v22.549h-18.149a4.616 4.616 0 0 0-4.544-3.852 4.623 4.623 0 0 0 0 9.244 4.614 4.614 0 0 0 4.544-3.852h19.688V42.68a5.346 5.346 0 0 0 4.59-5.282 5.361 5.361 0 0 0-10.72 0 5.346 5.346 0 0 0 4.59 5.282m.192 27.847a5.346 5.346 0 0 0-5.284 4.59h-7.267v4.621h-5.79a4.616 4.616 0 0 0-4.544-3.851 4.623 4.623 0 0 0 0 9.243 4.614 4.614 0 0 0 4.544-3.851h7.33v-4.622h5.727a5.346 5.346 0 0 0 5.284 4.59 5.36 5.36 0 1 0 0-10.72m-58.03 60.61v-10.97a4.614 4.614 0 0 0-.77-9.167 4.623 4.623 0 0 0-4.622 4.622 4.616 4.616 0 0 0 3.852 4.544v10.971a5.346 5.346 0 0 0-4.59 5.284 5.361 5.361 0 0 0 10.72 0 5.346 5.346 0 0 0-4.59-5.284m26.704-7.78a5.344 5.344 0 0 0-5.281 4.59h-7.557v-7.782a4.614 4.614 0 0 0-.77-9.167 4.623 4.623 0 0 0-4.622 4.622 4.616 4.616 0 0 0 3.851 4.545v9.322h9.098a5.344 5.344 0 0 0 5.28 4.59 5.36 5.36 0 1 0 0-10.72M140.74 99.99a5.346 5.346 0 0 0-5.283 4.59h-6.304V93.6h-5.727a4.616 4.616 0 0 0-4.544-3.85 4.623 4.623 0 0 0 0 9.243 4.614 4.614 0 0 0 4.544-3.852h4.186v10.979h7.845a5.344 5.344 0 0 0 5.283 4.59 5.361 5.361 0 0 0 0-10.72M12.87 42.756a5.344 5.344 0 0 0 5.283-4.589h1.104V52.39h9.32a4.614 4.614 0 0 0 9.167-.77 4.614 4.614 0 0 0-9.166-.77h-7.78V36.625h-2.645a5.344 5.344 0 0 0-5.283-4.589 5.361 5.361 0 0 0 0 10.72m-2.054 17.582v5.212h17.73c-.014.15-.045.294-.045.448a4.622 4.622 0 1 0 4.622-4.622 4.606 4.606 0 0 0-4.155 2.633H12.357v-3.671a5.346 5.346 0 0 0-.77-10.643 5.346 5.346 0 0 0-.77 10.643m6.053 27.165h5.212v-6.675h6.452a4.606 4.606 0 0 0 4.59 4.3 4.622 4.622 0 0 0 0-9.244 4.61 4.61 0 0 0-4.439 3.403h-8.143v6.676H16.87a5.346 5.346 0 0 0-5.282-4.59 5.361 5.361 0 0 0 0 10.72 5.344 5.344 0 0 0 5.282-4.59m37.982 32.66a4.616 4.616 0 0 0 3.852-4.544 4.623 4.623 0 0 0-9.244 0 4.614 4.614 0 0 0 3.852 4.545v4.666H43.027a5.344 5.344 0 0 0-5.283-4.589 5.361 5.361 0 0 0 0 10.72 5.346 5.346 0 0 0 5.283-4.59h11.824z"></path><path stroke="#3684ff" stroke-width="5" d="m175.093 16.495.382 112.01"></path></svg></svg>